<svg id="Capa_1" enable-background="new 0 0 512 512" height="512" viewBox="0 0 512 512" width="512" xmlns="http://www.w3.org/2000/svg"><g><g><g><path d="m0 300 61.3-248.59c1.65-6.7 7.66-11.41 14.56-11.41h360.27c6.9 0 12.91 4.71 14.56 11.41l61.31 248.59c0 8.84-7.16 16-16 16h-480c-8.84 0-16-7.16-16-16z" fill="#ffb454"/></g></g><g><path d="m450.7 51.41c-1.65-6.7-7.66-11.41-14.56-11.41h-180.14v276h240c8.84 0 16-7.16 16-16z" fill="#ff7d47"/></g><g><g><g><path d="m356 130h-200c-8.28 0-15-6.72-15-15v-100c0-8.28 6.72-15 15-15h200c8.28 0 15 6.72 15 15v100c0 8.28-6.72 15-15 15z" fill="#fff5f5"/></g><g><path d="m356 0h-100v130h100c8.28 0 15-6.72 15-15v-100c0-8.28-6.72-15-15-15z" fill="#e2dff4"/></g><g><path d="m386 230h-260c-8.28 0-15-6.72-15-15v-100c0-8.28 6.72-15 15-15h260c8.28 0 15 6.72 15 15v100c0 8.28-6.72 15-15 15z" fill="#e2dff4"/></g><g><path d="m386 100h-130v130h130c8.28 0 15-6.72 15-15v-100c0-8.28-6.72-15-15-15z" fill="#d5d3ea"/></g><g><path d="m416 450h-320c-8.28 0-15-6.72-15-15v-220c0-8.28 6.72-15 15-15h320c8.28 0 15 6.72 15 15v220c0 8.28-6.72 15-15 15z" fill="#fff5f5"/></g><g><path d="m416 200h-160v250h160c8.28 0 15-6.72 15-15v-220c0-8.28-6.72-15-15-15z" fill="#e2dff4"/></g></g><g><path d="m497 512h-482c-8.28 0-15-6.72-15-15v-197h166c6.46 0 12.19 4.13 14.23 10.26l16.58 49.74h118.38l16.58-49.74c2.04-6.13 7.77-10.26 14.23-10.26h166v197c0 8.28-6.72 15-15 15z" fill="#ffe278"/></g><g><path d="m512 300h-166c-6.46 0-12.19 4.13-14.23 10.26l-16.58 49.74h-59.19v152h241c8.28 0 15-6.72 15-15z" fill="#ffb454"/></g><g><path d="m326 450h-140c-8.28 0-15-6.72-15-15s6.72-15 15-15h140c8.28 0 15 6.72 15 15s-6.72 15-15 15z" fill="#ffb454"/></g><g><path d="m326 420h-70v30h70c8.28 0 15-6.72 15-15s-6.72-15-15-15z" fill="#ff7d47"/></g></g></g></svg>